<svg width="128" height="124" viewBox="0 0 128 124" fill="none" xmlns="http://www.w3.org/2000/svg">
<g filter="url(#filter0_d_213_49)">
<ellipse cx="63.7797" cy="58" rx="29.7797" ry="28" fill="#C0002A"/>
</g>
<path d="M73.0856 58C73.0856 55.5625 72.1827 53.4948 70.3769 51.7969C68.5711 50.099 66.3719 49.25 63.7795 49.25V46.75C65.4413 46.75 66.9979 47.0469 68.4492 47.6406C69.9005 48.2344 71.1635 49.0365 72.2381 50.0469C73.3128 51.0573 74.1658 52.2448 74.7973 53.6094C75.4288 54.974 75.7445 56.4375 75.7445 58H73.0856ZM67.7678 58C67.7678 56.9583 67.3801 56.0729 66.6046 55.3438C65.8291 54.6146 64.8874 54.25 63.7795 54.25V51.75C65.6186 51.75 67.1862 52.3594 68.4824 53.5781C69.7786 54.7969 70.4267 56.2708 70.4267 58H67.7678ZM74.3486 69.25C71.5789 69.25 68.8425 68.6823 66.1393 67.5469C63.4361 66.4115 60.9766 64.8021 58.7608 62.7188C56.5451 60.6354 54.8334 58.3229 53.6258 55.7812C52.4182 53.2396 51.8145 50.6667 51.8145 48.0625C51.8145 47.6875 51.9474 47.375 52.2133 47.125C52.4792 46.875 52.8115 46.75 53.2104 46.75H58.5946C58.9048 46.75 59.1818 46.849 59.4255 47.0469C59.6693 47.2448 59.8133 47.4792 59.8576 47.75L60.7218 52.125C60.7661 52.4583 60.755 52.7396 60.6885 52.9688C60.6221 53.1979 60.5002 53.3958 60.3229 53.5625L57.099 56.625C57.5422 57.3958 58.0684 58.1406 58.6777 58.8594C59.2871 59.5781 59.9573 60.2708 60.6885 60.9375C61.3754 61.5833 62.0955 62.1823 62.8489 62.7344C63.6022 63.2865 64.3999 63.7917 65.2419 64.25L68.3661 61.3125C68.5655 61.125 68.8259 60.9844 69.1471 60.8906C69.4684 60.7969 69.7842 60.7708 70.0944 60.8125L74.681 61.6875C74.9912 61.7708 75.246 61.9219 75.4454 62.1406C75.6448 62.3594 75.7445 62.6042 75.7445 62.875V67.9375C75.7445 68.3125 75.6116 68.625 75.3457 68.875C75.0798 69.125 74.7474 69.25 74.3486 69.25ZM55.836 54.25L58.0296 52.1875L57.4646 49.25H54.5066C54.6174 50.1042 54.7725 50.9479 54.9719 51.7812C55.1713 52.6146 55.4594 53.4375 55.836 54.25ZM67.7346 65.4375C68.5987 65.7917 69.4795 66.0729 70.3769 66.2812C71.2743 66.4896 72.1772 66.625 73.0856 66.6875V63.9375L69.9614 63.3438L67.7346 65.4375Z" fill="#F5F5F5"/>
<defs>
<filter id="filter0_d_213_49" x="0" y="0" width="127.559" height="124" filterUnits="userSpaceOnUse" color-interpolation-filters="sRGB">
<feFlood flood-opacity="0" result="BackgroundImageFix"/>
<feColorMatrix in="SourceAlpha" type="matrix" values="0 0 0 0 0 0 0 0 0 0 0 0 0 0 0 0 0 0 127 0" result="hardAlpha"/>
<feOffset dy="4"/>
<feGaussianBlur stdDeviation="17"/>
<feColorMatrix type="matrix" values="0 0 0 0 0.0352941 0 0 0 0 0.172549 0 0 0 0 0.298039 0 0 0 0.24 0"/>
<feBlend mode="normal" in2="BackgroundImageFix" result="effect1_dropShadow_213_49"/>
<feBlend mode="normal" in="SourceGraphic" in2="effect1_dropShadow_213_49" result="shape"/>
</filter>
</defs>
</svg>
