<svg width="113" height="113" viewBox="0 0 113 113" fill="none" xmlns="http://www.w3.org/2000/svg">
<g filter="url(#filter0_d_263_156)">
<circle cx="56.5" cy="52.5" r="22.5" fill="#C0002A"/>
</g>
<path d="M63 53C63 51.05 62.3208 49.3958 60.9625 48.0375C59.6042 46.6792 57.95 46 56 46V44C57.25 44 58.4208 44.2375 59.5125 44.7125C60.6042 45.1875 61.5542 45.8292 62.3625 46.6375C63.1708 47.4458 63.8125 48.3958 64.2875 49.4875C64.7625 50.5792 65 51.75 65 53H63ZM59 53C59 52.1667 58.7083 51.4583 58.125 50.875C57.5417 50.2917 56.8333 50 56 50V48C57.3833 48 58.5625 48.4875 59.5375 49.4625C60.5125 50.4375 61 51.6167 61 53H59ZM63.95 62C61.8667 62 59.8083 61.5458 57.775 60.6375C55.7417 59.7292 53.8917 58.4417 52.225 56.775C50.5583 55.1083 49.2708 53.2583 48.3625 51.225C47.4542 49.1917 47 47.1333 47 45.05C47 44.75 47.1 44.5 47.3 44.3C47.5 44.1 47.75 44 48.05 44H52.1C52.3333 44 52.5417 44.0792 52.725 44.2375C52.9083 44.3958 53.0167 44.5833 53.05 44.8L53.7 48.3C53.7333 48.5667 53.725 48.7917 53.675 48.975C53.625 49.1583 53.5333 49.3167 53.4 49.45L50.975 51.9C51.3083 52.5167 51.7042 53.1125 52.1625 53.6875C52.6208 54.2625 53.125 54.8167 53.675 55.35C54.1917 55.8667 54.7333 56.3458 55.3 56.7875C55.8667 57.2292 56.4667 57.6333 57.1 58L59.45 55.65C59.6 55.5 59.7958 55.3875 60.0375 55.3125C60.2792 55.2375 60.5167 55.2167 60.75 55.25L64.2 55.95C64.4333 56.0167 64.625 56.1375 64.775 56.3125C64.925 56.4875 65 56.6833 65 56.9V60.95C65 61.25 64.9 61.5 64.7 61.7C64.5 61.9 64.25 62 63.95 62ZM50.025 50L51.675 48.35L51.25 46H49.025C49.1083 46.6833 49.225 47.3583 49.375 48.025C49.525 48.6917 49.7417 49.35 50.025 50ZM58.975 58.95C59.625 59.2333 60.2875 59.4583 60.9625 59.625C61.6375 59.7917 62.3167 59.9 63 59.95V57.75L60.65 57.275L58.975 58.95Z" fill="#F5F5F5"/>
<defs>
<filter id="filter0_d_263_156" x="0" y="0" width="113" height="113" filterUnits="userSpaceOnUse" color-interpolation-filters="sRGB">
<feFlood flood-opacity="0" result="BackgroundImageFix"/>
<feColorMatrix in="SourceAlpha" type="matrix" values="0 0 0 0 0 0 0 0 0 0 0 0 0 0 0 0 0 0 127 0" result="hardAlpha"/>
<feOffset dy="4"/>
<feGaussianBlur stdDeviation="17"/>
<feColorMatrix type="matrix" values="0 0 0 0 0.0352941 0 0 0 0 0.172549 0 0 0 0 0.298039 0 0 0 0.24 0"/>
<feBlend mode="normal" in2="BackgroundImageFix" result="effect1_dropShadow_263_156"/>
<feBlend mode="normal" in="SourceGraphic" in2="effect1_dropShadow_263_156" result="shape"/>
</filter>
</defs>
</svg>
