<svg width="33" height="30" viewBox="0 0 33 30" fill="none" xmlns="http://www.w3.org/2000/svg">
<path d="M26.0856 15C26.0856 12.5625 25.1827 10.4948 23.3769 8.79688C21.5711 7.09896 19.3719 6.25 16.7795 6.25V3.75C18.4413 3.75 19.9979 4.04688 21.4492 4.64062C22.9005 5.23438 24.1635 6.03646 25.2381 7.04688C26.3128 8.05729 27.1658 9.24479 27.7973 10.6094C28.4288 11.974 28.7445 13.4375 28.7445 15H26.0856ZM20.7678 15C20.7678 13.9583 20.3801 13.0729 19.6046 12.3438C18.8291 11.6146 17.8874 11.25 16.7795 11.25V8.75C18.6186 8.75 20.1862 9.35938 21.4824 10.5781C22.7786 11.7969 23.4267 13.2708 23.4267 15H20.7678ZM27.3486 26.25C24.5789 26.25 21.8425 25.6823 19.1393 24.5469C16.4361 23.4115 13.9766 21.8021 11.7608 19.7188C9.54508 17.6354 7.83341 15.3229 6.62583 12.7812C5.41824 10.2396 4.81445 7.66667 4.81445 5.0625C4.81445 4.6875 4.9474 4.375 5.21329 4.125C5.47918 3.875 5.81154 3.75 6.21037 3.75H11.5946C11.9048 3.75 12.1818 3.84896 12.4255 4.04688C12.6693 4.24479 12.8133 4.47917 12.8576 4.75L13.7218 9.125C13.7661 9.45833 13.755 9.73958 13.6885 9.96875C13.6221 10.1979 13.5002 10.3958 13.3229 10.5625L10.099 13.625C10.5422 14.3958 11.0684 15.1406 11.6777 15.8594C12.2871 16.5781 12.9573 17.2708 13.6885 17.9375C14.3754 18.5833 15.0955 19.1823 15.8489 19.7344C16.6022 20.2865 17.3999 20.7917 18.2419 21.25L21.3661 18.3125C21.5655 18.125 21.8259 17.9844 22.1471 17.8906C22.4684 17.7969 22.7842 17.7708 23.0944 17.8125L27.681 18.6875C27.9912 18.7708 28.246 18.9219 28.4454 19.1406C28.6448 19.3594 28.7445 19.6042 28.7445 19.875V24.9375C28.7445 25.3125 28.6116 25.625 28.3457 25.875C28.0798 26.125 27.7474 26.25 27.3486 26.25ZM8.83604 11.25L11.0296 9.1875L10.4646 6.25H7.50659C7.61737 7.10417 7.77248 7.94792 7.97189 8.78125C8.17131 9.61458 8.45936 10.4375 8.83604 11.25ZM20.7346 22.4375C21.5987 22.7917 22.4795 23.0729 23.3769 23.2812C24.2743 23.4896 25.1772 23.625 26.0856 23.6875V20.9375L22.9614 20.3438L20.7346 22.4375Z" fill="#F5F5F5"/>
</svg>
