<svg width="290" height="290" viewBox="0 0 290 290" fill="none" xmlns="http://www.w3.org/2000/svg">
<circle cx="145" cy="145" r="145" fill="#C0002A"/>
<path d="M145 145C135.253 145 126.909 141.529 119.967 134.588C113.026 127.647 109.556 119.303 109.556 109.556C109.556 99.8083 113.026 91.4641 119.967 84.5229C126.909 77.5817 135.253 74.1111 145 74.1111C154.747 74.1111 163.091 77.5817 170.033 84.5229C176.974 91.4641 180.444 99.8083 180.444 109.556C180.444 119.303 176.974 127.647 170.033 134.588C163.091 141.529 154.747 145 145 145ZM74.1111 215.889V191.078C74.1111 186.056 75.4033 181.441 77.9878 177.232C80.5723 173.023 84.006 169.811 88.2889 167.596C97.4453 163.018 106.75 159.584 116.201 157.295C125.653 155.006 135.253 153.861 145 153.861C154.747 153.861 164.347 155.006 173.799 157.295C183.25 159.584 192.555 163.018 201.711 167.596C205.994 169.811 209.428 173.023 212.012 177.232C214.597 181.441 215.889 186.056 215.889 191.078V215.889H74.1111ZM91.8333 198.167H198.167V191.078C198.167 189.453 197.76 187.976 196.948 186.647C196.136 185.318 195.065 184.284 193.736 183.546C185.761 179.558 177.712 176.568 169.59 174.574C161.467 172.58 153.27 171.583 145 171.583C136.73 171.583 128.533 172.58 120.41 174.574C112.288 176.568 104.239 179.558 96.2639 183.546C94.9347 184.284 93.864 185.318 93.0517 186.647C92.2394 187.976 91.8333 189.453 91.8333 191.078V198.167ZM145 127.278C149.874 127.278 154.046 125.542 157.516 122.072C160.987 118.601 162.722 114.429 162.722 109.556C162.722 104.682 160.987 100.51 157.516 97.0392C154.046 93.5686 149.874 91.8333 145 91.8333C140.126 91.8333 135.954 93.5686 132.484 97.0392C129.013 100.51 127.278 104.682 127.278 109.556C127.278 114.429 129.013 118.601 132.484 122.072C135.954 125.542 140.126 127.278 145 127.278Z" fill="white"/>
</svg>
